<svg xmlns="http://www.w3.org/2000/svg" xmlns:xlink="http://www.w3.org/1999/xlink" version="1.1" x="0px" y="0px" viewBox="0 0 100 100" enable-background="new 0 0 100 100" xml:space="preserve"><path d="M82,46V33C82,15.327,67.673,1,50,1S18,15.327,18,33v13c-11,0-7.999,26.999,6,27c0,0,6.273,13.729,13.288,20.743  C40.544,96.991,45.038,99,50,99s9.468-2.023,12.725-5.271C69.729,86.705,76,73,76,73C90,73,93,46,82,46z M40,81.706  c-2.421-0.721-4.29-2.714-4.835-5.206H40V81.706z M40,73.5h-4.835c0.545-2.492,2.414-4.485,4.835-5.206V73.5z M48.5,82H43v-5.5h5.5  V82z M48.5,73.5H43V68h5.5V73.5z M57,82h-5.5v-5.5H57V82z M57,73.5h-5.5V68H57V73.5z M60,81.706V76.5h4.835  C64.29,78.992,62.421,80.985,60,81.706z M60,73.5v-5.206c2.421,0.721,4.29,2.714,4.835,5.206H60z"></path></svg>